<svg width="133" height="133" viewBox="0 0 133 133" fill="none" xmlns="http://www.w3.org/2000/svg">
<rect width="133" height="133" rx="66.5" fill="#FFDE40"/>
<path d="M72.5155 41.4357H91.9777C96.6247 41.4362 101.081 43.2818 104.367 46.5667C107.653 49.8516 109.5 54.3068 109.5 58.9523V74.0495C109.5 76.3497 109.047 78.6274 108.166 80.7525C107.286 82.8777 105.995 84.8086 104.368 86.435C102.741 88.0614 100.809 89.3515 98.683 90.2316C96.5571 91.1117 94.2787 91.5645 91.9777 91.5643H72.7164C70.4154 91.5645 68.1369 91.1117 66.011 90.2316C63.8851 89.3515 61.9535 88.0614 60.3263 86.435C58.6992 84.8086 57.4085 82.8777 56.5279 80.7525C55.6473 78.6274 55.1941 76.3497 55.1941 74.0495V58.9523C55.1941 49.2765 62.8365 41.4357 72.5155 41.4357Z" fill="#21201F"/>
<path d="M77.2778 69.7784V68.9275H72.1523V65.1404H82.1459V69.6451C82.1459 76.7354 78.7587 80.8548 72.3531 80.8548C65.7468 80.8548 61.9104 75.6507 61.9104 66.4752C61.9104 57.5279 66.0973 52.05 73.7792 52.05C76.6807 52.05 79.1841 52.8187 80.5518 53.8193V57.7178C78.5868 56.5005 76.3244 55.8478 74.013 55.8316C68.9751 55.8316 66.8387 59.2516 66.8387 66.4752C66.8387 73.4815 68.6081 77.0659 72.4444 77.0659C76.1092 77.0841 77.2778 74.2484 77.2778 69.7784Z" fill="white"/>
<path d="M102.871 70.3116C102.871 77.1188 99.2005 80.8712 93.9234 80.8712C88.6464 80.8712 84.9761 77.1188 84.9761 70.3627C84.9761 63.5554 88.6464 59.8031 93.9234 59.8031C99.2005 59.8031 102.871 63.539 102.871 70.3116ZM97.915 70.3116C97.915 65.6407 96.5802 63.5901 93.9289 63.5901C91.2776 63.5901 89.941 65.6407 89.941 70.3627C89.941 75.0336 91.2758 77.086 93.9289 77.086C96.5821 77.086 97.915 75.0171 97.915 70.3116Z" fill="white"/>
<path d="M37.2459 56.2506H35.0548C31.0741 56.2506 28.9779 58.2683 28.9779 61.2538C28.9779 64.641 30.4277 66.2095 33.415 68.2272L35.8673 69.8797L28.777 80.4704H23.5L29.8562 70.9954C26.186 68.3769 24.1336 65.8425 24.1336 61.5222C24.1336 56.1173 27.8823 52.4635 35.0036 52.4635H42.0921V80.4722H37.2295V56.2506H37.2459Z" fill="#21201F"/>
</svg>
